# xmcd CD database file
#
# Track frame offsets:
#	150
#	13970
#	42502
#	57443
#	83452
#	106386
#	162849
#	184961
#	225504
#	242966
#	273954
#	303601
#
# Disc length: 4227 seconds
#
# Revision: 0
# Processed by: cddbd v1.5.2PL0 Copyright (c) Steve Scherf et al.
# Submitted via: Feurio! 1.68 - http://www.feurio.com
#
DISCID=9e10810c
DTITLE=Robin Trower - Live At King Biscut
DYEAR=1900
DGENRE=Bluesrock
TTITLE0=Lady Love
TTITLE1=Somebody Calling
TTITLE2=Falling Star
TTITLE3=Too Rolling Stoned
TTITLE4=Smile
TTITLE5=Daydream
TTITLE6=Fool and Me
TTITLE7=Bridge Of Sighs
TTITLE8=Day Of The Eagle
TTITLE9=Little Bit Of Sympathy
TTITLE10=Messin' The Blues
TTITLE11=Further On Up The Road
EXTD=
EXTT0=
EXTT1=
EXTT2=
EXTT3=4U by Buford Hawkins
EXTT4=4U by Buford Hawkins
EXTT5=4U by Buford Hawkins
EXTT6=4U by Buford Hawkins
EXTT7=4U by Buford Hawkins
EXTT8=4U by Buford Hawkins
EXTT9=4U by Buford Hawkins
EXTT10=4U by Buford Hawkins
EXTT11=4U by Buford Hawkins
PLAYORDER=
